<?xml version="1.0" encoding="UTF-8"?>
<svg id="Capa_1" data-name="Capa 1" xmlns="http://www.w3.org/2000/svg" version="1.1" viewBox="0 0 1920 1080">
  <defs>
    <style>
      .cls-1 {
        fill: #ccc;
      }

      .cls-1, .cls-2, .cls-3, .cls-4, .cls-5, .cls-6, .cls-7, .cls-8, .cls-9, .cls-10, .cls-11, .cls-12, .cls-13, .cls-14, .cls-15, .cls-16, .cls-17, .cls-18, .cls-19, .cls-20, .cls-21, .cls-22, .cls-23, .cls-24, .cls-25 {
        stroke-width: 0px;
      }

      .cls-2 {
        fill: #d3d3d3;
      }

      .cls-3 {
        fill: #000;
      }

      .cls-4 {
        fill: #dcdcdc;
      }

      .cls-5 {
        fill: #d0d0d0;
      }

      .cls-6 {
        fill: #131313;
      }

      .cls-7 {
        fill: #0d0d0d;
      }

      .cls-8 {
        fill: #d4d4d4;
      }

      .cls-9 {
        fill: #d9d9d9;
      }

      .cls-10 {
        fill: #d6d6d6;
      }

      .cls-11 {
        fill: #e6e6e6;
      }

      .cls-12 {
        fill: #ddd;
      }

      .cls-13 {
        fill: #070707;
      }

      .cls-14 {
        fill: #010101;
      }

      .cls-15 {
        fill: #121212;
      }

      .cls-16 {
        fill: #c6c6c6;
      }

      .cls-17 {
        fill: #d7d7d7;
      }

      .cls-18 {
        fill: #cfcfcf;
      }

      .cls-19 {
        fill: #efefef;
      }

      .cls-20 {
        fill: #ededed;
      }

      .cls-21 {
        fill: #dadada;
      }

      .cls-22 {
        fill: #c5c5c5;
      }

      .cls-23 {
        fill: #cbcbcb;
      }

      .cls-24 {
        fill: #d1d1d1;
      }

      .cls-25 {
        fill: #030303;
      }
    </style>
  </defs>
  <path class="cls-3" d="M1281.17,452.82c.23,18.27-6.48,34.41-15.53,49.74-18.94,32.09-43.42,59.69-69.87,85.68-19.26,18.93-39.64,36.6-61.1,52.97-24.39,18.6-51.85,27.51-82.67,24.29-17.31-1.81-33.25-7.81-47.63-17.62-17.95-12.25-35.67-24.86-51.9-39.35-31.7-28.28-60.43-59.27-83.98-94.79-8.96-13.51-16.12-27.99-19.22-43.98-3.59-18.49-.44-36.57,5.53-54.17,6.7-19.74,17.73-37.02,30.64-53.27,19.24-24.2,39.91-47.04,63.21-67.39,15.71-13.72,32.36-26.31,49.48-38.21,22.63-15.72,48.18-21.89,75.43-21.57,14.71.17,28.67,3.77,41.51,11.12,8.35,4.77,16.39,10.04,24.28,15.53,41.57,28.92,75.39,65.62,106,105.57,12.28,16.03,23.18,32.82,29.85,52.06,3.75,10.81,5.93,21.91,5.96,33.39Z"/>
  <path class="cls-20" d="M1032.45,421.45c0,10.98.04,21.97-.04,32.95-.02,2.08.3,3.3,2.6,4.15,5.73,2.11,8.81,6.6,8.82,12.64,0,6.03-3.03,10.54-8.76,12.69-2.22.83-2.69,1.97-2.66,4.1.11,7.74.05,15.48.05,23.22,0,1,.02,2-.04,2.99-.09,1.49-.57,2.81-2.35,2.78-1.82-.03-2.15-1.36-2.15-2.88,0-6.12,0-12.23,0-18.35,0-1.87-.16-3.76.03-5.61.36-3.42-.43-5.51-4.11-7.02-5.17-2.13-7.57-6.85-7.31-12.42.26-5.54,3.03-9.9,8.29-11.86,2.75-1.02,3.16-2.52,3.15-4.98-.06-21.47-.04-42.94-.05-64.41,0-.87-.06-1.75-.01-2.62.08-1.39.64-2.46,2.2-2.51,1.81-.05,2.33,1.13,2.34,2.69.02,3.87.04,7.74.04,11.61,0,7.61,0,15.23,0,22.84h-.02Z"/>
  <path class="cls-19" d="M1062.17,485.32c0-9.11-.04-18.22.03-27.33.01-1.9-.24-3.07-2.39-3.86-5.72-2.09-8.76-6.42-8.91-12.55-.16-6.24,3.1-10.5,8.62-12.75,2.43-.99,2.71-2.27,2.69-4.43-.07-11.61-.04-23.22-.03-34.82,0-1-.06-2.01.06-2.99.16-1.39.88-2.34,2.44-2.25,1.36.08,1.97.94,2.04,2.22.06,1,.06,2,.06,2.99,0,11.36.09,22.72-.05,34.07-.03,2.82.63,4.33,3.48,5.54,5.38,2.31,8.25,6.75,8.01,12.76-.24,5.8-3.23,9.97-8.56,12.06-2.3.9-2.93,1.99-2.92,4.31.09,17.85.08,35.7,0,53.54,0,1.88,1.03,4.97-2.2,4.99-3.13.02-2.32-2.96-2.33-4.93-.06-8.86-.03-17.72-.03-26.58Z"/>
  <path class="cls-19" d="M1101.19,421.45c0,10.98.03,21.97-.03,32.95-.01,2.03.23,3.33,2.55,4.19,5.55,2.05,8.58,6.28,8.76,12.27.18,6.09-2.84,10.69-8.76,13.03-2.02.8-2.58,1.78-2.56,3.82.1,8.36.05,16.72.03,25.09,0,1.72.33,3.94-2.13,4.05-2.81.13-2.45-2.24-2.45-4.08-.01-8.36-.06-16.73.04-25.09.02-2.01-.46-3.02-2.54-3.78-5.56-2.04-8.6-6.23-8.87-12.2-.25-5.71,2.88-10.95,8.37-12.91,2.84-1.01,3.04-2.52,3.03-4.95-.07-20.47-.04-40.94-.04-61.41,0-1.12-.07-2.25.02-3.37.14-1.86-.71-4.59,2.23-4.69,3.11-.11,2.31,2.69,2.32,4.51.06,10.86.03,21.72.03,32.58Z"/>
  <path class="cls-10" d="M1093.94,332.91c6.62,0,9.64,1.56,10.99,5.68,2.1,6.42-1.91,12.11-8.82,12.54q-7.57.47-7.57-6.9c0-2-.02-3.99,0-5.99.08-6.05-.83-5.24,5.4-5.33Z"/>
  <path class="cls-4" d="M1032.86,332.44c5.98-.03,10.18,3.96,10.12,9.6-.06,5.43-4.28,9.49-9.9,9.52-5.58.03-9.89-4.08-9.93-9.47-.04-5.49,4.12-9.62,9.71-9.65Z"/>
  <path class="cls-4" d="M1043.79,315.99c0-4.77-.04-8.46.03-12.16.02-.98-.52-2.56,1.34-2.43,1.43.1,1.14,1.4,1.15,2.34.03,4.24.06,8.49,0,12.73-.01,1.01.62,2.41-.96,2.86-1.39.4-2.35-.38-3.17-1.45-2.43-3.16-4.9-6.31-7.37-9.44-.8-1.01-1.68-1.97-3.18-3.71,0,4.88.02,8.69-.01,12.51,0,.81.26,1.94-1.01,2.05-1.53.14-1.39-1.05-1.4-2.05,0-4.37-.03-8.74.02-13.11.01-1.03-.51-2.42,1.05-2.83,1.26-.33,2.08.48,2.82,1.41,3.34,4.18,6.71,8.34,10.69,13.27Z"/>
  <path class="cls-21" d="M1069.47,337.56c0,3.68.02,7.37-.01,11.05,0,.94.28,2.28-1.11,2.37-1.86.12-1.29-1.5-1.3-2.46-.07-4.24-.07-8.48-.01-12.72.01-1-.59-2.4,1.05-2.78,1.27-.29,2.07.47,2.81,1.4,3.25,4.08,6.55,8.14,10.62,13.19,0-4.7-.04-8.31.02-11.92.02-1-.56-2.57,1.18-2.62,1.77-.05,1.27,1.52,1.28,2.54.04,4.24.05,8.48,0,12.72-.01,1.01.51,2.39-1.14,2.73-1.29.27-2.1-.51-2.82-1.43-3.24-4.1-6.48-8.2-9.72-12.3-.28.08-.57.15-.85.23Z"/>
  <path class="cls-10" d="M1066.31,319.03c1.6-2.29,3-4.6,4.71-6.65,1.54-1.84,1.81-3.32-.02-5.11-1.06-1.03-1.86-2.35-2.65-3.61-.4-.64-1.66-1.31-.65-2.15.88-.72,1.9-.19,2.57.7.97,1.3,2.02,2.56,2.84,3.95,1.17,1.98,2.11,1.68,3.22-.01.96-1.46,1.95-2.9,3.05-4.25.59-.72,1.6-1,2.34-.32.79.72-.2,1.26-.53,1.86-1.29,2.36-4.55,4.09-3.98,6.82.49,2.34,2.91,4.25,4.37,6.43.49.73,1.89,1.5.94,2.44-.93.93-2.06.28-2.86-.71-1.07-1.33-2.4-2.5-3.23-3.95-1.67-2.92-2.74-2.48-3.94.29-.42.95-1.29,1.69-1.86,2.64-.76,1.26-1.93,2.73-4.32,1.65Z"/>
  <path class="cls-11" d="M1051.04,310.17c0-.25,0-.5,0-.75,0-8.59,1.35-9.68,10.08-8.15.73.13,1.6.11,1.46,1.18-.11.83-.9.72-1.49.74-1.25.04-2.5.03-3.74.01-2.11-.04-4.05-.47-3.96,3.03.09,3.21,1.76,2.81,3.81,2.89,1.49.06,4.3-.77,4.21.74-.13,2.21-2.88,1.05-4.37,1-2.75-.09-3.6.67-3.61,3.55,0,2.98,1.32,3.06,3.6,3.11,1.97.04,5.78-.78,5.59.7-.34,2.59-3.71,1.05-5.7,1.14-5.91.25-5.91.1-5.88-5.82,0-1.12,0-2.25,0-3.37Z"/>
  <path class="cls-9" d="M1012.42,351.59c-1.64-.03-3.23-.3-4.74-.95-.74-.32-1.37-.72-1.04-1.65.32-.93,1.05-.92,1.81-.61,1.89.78,3.83,1.07,5.86.7,1.65-.3,2.75-1.13,2.88-2.92.13-1.81-.88-2.79-2.49-3.23-1.44-.4-2.93-.64-4.36-1.08-2.3-.7-3.6-2.32-3.51-4.71.08-2.22,1.42-3.62,3.55-4.33,2.26-.75,4.44-.34,6.61.35.7.22,1.53.55,1.28,1.49-.25.93-1.07.95-1.82.62-1.29-.57-2.64-.76-4.02-.69-1.47.08-2.76.59-2.99,2.26-.23,1.68.88,2.49,2.29,2.96.7.23,1.46.29,2.19.47,4.56,1.14,6.37,3.1,5.89,6.34-.45,3.07-3.27,4.97-7.37,4.96Z"/>
  <path class="cls-21" d="M1114.41,332.45c1.04,0,1.45-.1,1.78.02,1.52.52,4.39.05,4.08,2.11-.33,2.15-2.43.02-3.75.04-2.03.04-4.39-.4-4.88,2.18-.48,2.51,1.77,2.86,3.64,3.29,1.32.31,2.7.6,3.9,1.21,3.46,1.76,3.85,6.28.86,8.71-2.29,1.86-7.89,2.11-10.37.51-.55-.36-1.1-.66-.84-1.41.3-.88,1.01-1.08,1.79-.75,1.89.8,3.83,1.05,5.86.73,1.67-.26,2.79-1.12,3-2.84.22-1.8-.85-2.79-2.42-3.29-1.07-.34-2.17-.58-3.27-.78-3.14-.6-5.05-2.25-4.54-5.66.49-3.29,3.09-3.86,5.17-4.07Z"/>
  <path class="cls-12" d="M1062.23,339.74c0,1.62.15,3.26-.03,4.86-.5,4.5-3.37,7.01-7.74,6.97-4.33-.04-7.17-2.63-7.53-7.17-.23-2.85-.18-5.73-.14-8.6.02-1.08-.65-2.82,1.42-2.74,1.74.06,1.2,1.59,1.22,2.6.06,2.74-.04,5.49.05,8.23.11,3.13,1.5,5.28,4.91,5.45,3.14.16,5.11-1.81,5.3-5.46.15-2.99.07-5.99.07-8.98,0-.94.1-1.84,1.29-1.86,1.23-.02,1.28.92,1.27,1.84,0,1.62,0,3.24,0,4.87-.04,0-.07,0-.11,0Z"/>
  <path class="cls-5" d="M1060.51,566.4c-.67,0-1.07-.09-1.42.02-1.16.35-3.23-.89-3.37,1-.14,1.77,1.75,2.55,3.42,2.86.72.13,1.48.04,2.23.06,1.14.04,3.06-1.28,3.25.18.29,2.12-2.22,1.46-3.41,1.69-4.03.77-7.4-1.4-8.1-4.81-.84-4.06,1.13-6.97,5.31-7.99,2.39-.58,4.47-.06,6.17,1.65,1.13,1.14,1.63,2.84,1,4.17-1.14,2.39-3.6.61-5.08,1.19Z"/>
  <path class="cls-5" d="M1041.54,566.4c-.6,0-1.03-.12-1.34.02-1.17.54-3.47-1.25-3.51,1.15-.03,2.01,2.05,2.67,3.88,2.75,1.22.05,2.47-.25,3.7-.43.65-.1,1.27-.17,1.4.69.09.57-.25.92-.76,1.11-4.79,1.7-10.31.19-11.06-4.77-.44-2.89.57-5.23,3.09-6.68,2.54-1.46,5.22-1.61,7.76.11,1.78,1.21,2.4,3.23,1.67,4.96-.94,2.24-3.36.56-4.81,1.08Z"/>
  <path class="cls-17" d="M1105.71,587.96c0,4.51,0,4.53-3.81,5.63-1.07.31-2.18.67-3.27.65-2.3-.02-4.25-.83-4.48-3.49-.24-2.74,1.55-3.69,3.91-3.96.86-.1,1.75-.05,2.6-.23.99-.21,2.59.26,2.62-1.36.04-1.79-1.5-2.1-2.91-2.18-.73-.05-1.47.18-2.21.26-.99.1-2.44,1.19-2.75-.49-.2-1.09,1.31-1.19,2.27-1.37,4.84-.91,8.87-.04,8.05,6.55Z"/>
  <path class="cls-2" d="M1085.44,560.83c-.29-.1-2.48,2.03-2.76.07-.26-1.86,2.51-1.46,3.91-1.66,4.3-.61,6.07,1.22,6.28,5.64.09,1.98-.76,4.1,1.11,5.95.9.89-.69,1.78-1.23,1.34-2.21-1.78-4.15-.11-6.22.09-2.04.19-4.16-.08-4.93-2.38-.77-2.29-.25-4.24,2.49-4.84.96-.21,2.07,0,2.93-.38,1.16-.52,3.58.76,3.35-1.71-.2-2.16-2.35-1.72-4.94-2.14Z"/>
  <path class="cls-23" d="M1249.25,451.35h-52.85c1.8-1.53,47.97-2.05,52.85,0Z"/>
  <path class="cls-1" d="M933.84,451.32h-52.64c0-.27,0-.54,0-.81h52.65c0,.27,0,.54,0,.81Z"/>
  <path class="cls-16" d="M1091.63,311.25c0-1.24-.07-2.49.01-3.73.19-2.76,0-5.06-3.81-4.25-.69.15-1.62.06-1.7-.94-.08-.99.75-1.18,1.51-1.18,3.48-.01,6.96,0,10.44.03.77,0,1.61.19,1.56,1.15-.05,1-1.01,1.07-1.69.93-3.77-.76-3.93,1.44-3.79,4.25.16,3.35.03,6.71.03,10.06,0,.92-.06,1.83-1.26,1.85-1.25.02-1.26-.94-1.26-1.84-.01-2.11,0-4.22,0-6.34h-.03Z"/>
  <path class="cls-8" d="M1075.29,581.05c4.01.09,7.01,3.01,6.95,6.75-.07,3.75-3.14,6.51-7.2,6.45-4.07-.06-7.02-2.91-6.93-6.7.08-3.72,3.26-6.59,7.19-6.5Z"/>
  <path class="cls-1" d="M1054,587.14c.29-1.56-.24-5.28.37-5.17,2.77.5,5.1-1.43,7.76-.79,2.38.57,3.78,1.97,4.04,4.31.23,2.1.13,4.24.16,6.36,0,.89-.03,1.91-1.26,1.82-1.28-.09-.96-1.23-.99-2.04-.05-1.5.01-3-.03-4.49-.06-2.19-.69-4.15-3.32-4.06-2.61.1-4.58,1.24-4.55,4.31.01,1.62,0,3.25-.01,4.87,0,.79-.13,1.58-1.18,1.46-.71-.08-1-.62-1-1.34.01-1.62,0-3.25,0-5.24Z"/>
  <path class="cls-24" d="M1044.26,587.81c-.11,1.85-.22,3.7-.34,5.55-2.7-.83-5.06,1.38-7.76.81-2.37-.51-3.82-1.85-4-4.25-.17-2.23-.09-4.47-.1-6.71,0-.74-.03-1.59.99-1.67,1.37-.11,1.18.96,1.2,1.79.04,1.86-.06,3.74.08,5.59.16,2.08,1.16,3.7,3.49,3.47,2.09-.21,3.85-1.2,3.96-3.68.07-1.61-.02-3.23.05-4.85.04-.89-.43-2.23,1.08-2.32,1.61-.1,1.17,1.27,1.22,2.16.07,1.36.02,2.73.02,4.1.03,0,.07,0,.1,0Z"/>
  <path class="cls-18" d="M1079.88,560.15c-1.56,3.39-3.15,6.76-4.67,10.17-.46,1.03-1.04,1.56-2.23,1.56-1.26,0-1.7-.74-2.12-1.72-1.17-2.75-2.43-5.47-3.54-8.24-.26-.64-1.46-1.54-.16-2.16,1.05-.5,1.85.19,2.29,1.28,1.07,2.62,2.2,5.22,3.39,8.04,2.98-2.82,2.38-7.74,6.11-9.55.31.21.62.42.93.63Z"/>
  <path class="cls-10" d="M1086.35,578.55c0,2.58,1.22,3.2,3.33,2.94.72-.09,2.04-.46,2.05.82.02,1.17-1.18,1.1-2.03,1.01-5.3-.54-2.3,3.46-2.74,5.34-.49,2.13.3,4.04,3.23,3.51.8-.14,1.93-.75,2.14.54.19,1.16-1.1,1.13-1.85,1.32-3.4.87-5.49-.78-5.95-4.18-.33-2.4,1.16-4.98-1.28-7.32-.78-.75,1.86-2.43,3.1-3.99Z"/>
  <path class="cls-4" d="M1024.37,578.61c-.09,2.88,1.53,3.01,3.47,2.88.73-.05,2.01-.42,1.86,1-.09.94-1.11.85-1.82.79-5.35-.51-2.62,3.55-2.93,5.57-.38,2.45.76,4.16,3.76,3.25.68-.21,1.56-.49,1.74.62.13.83-.69.9-1.22,1.12-3.39,1.37-6.07-.49-6.51-4.11-.29-2.37,1.33-5.03-1.48-7.22-.72-.56,2.03-2.26,3.12-3.91Z"/>
  <path class="cls-22" d="M1047.98,562.05c0-1.99-.04-3.99.01-5.98.02-.92-.31-2.24,1.18-2.28,1.53-.04,1.22,1.27,1.23,2.2.03,3.24-.05,6.48.03,9.71.04,1.65-.59,3.56,1.37,4.71.47.28.52.94.13,1.27-.31.27-.91.37-1.34.3-2-.34-2.5-1.9-2.59-3.58-.1-2.11-.02-4.23-.03-6.35Z"/>
  <path class="cls-14" d="M1030.14,480.33c-4.92,0-9.04-4.07-9.11-9.02-.07-5.02,4.21-9.23,9.32-9.16,4.98.06,8.89,4.1,8.89,9.18,0,4.87-4.17,9-9.1,9Z"/>
  <path class="cls-25" d="M1064.41,450.54c-4.96-.05-8.99-4.14-9.01-9.14-.01-5.02,4.35-9.23,9.44-9.11,4.85.12,8.89,4.41,8.81,9.36-.08,4.93-4.25,8.94-9.24,8.89Z"/>
  <path class="cls-25" d="M1098.94,480.35c-5.14-.06-9.25-4.26-9.16-9.36.09-4.9,4.27-8.92,9.24-8.85,5.02.06,8.9,4.05,8.88,9.15-.01,5.03-4.06,9.12-8.97,9.06Z"/>
  <path class="cls-25" d="M1091.22,341.65c0-.25-.08-.53,0-.74.77-1.95-1.85-5.06,1.64-5.98,4-1.06,8.1.78,9.32,3.68,1.37,3.26.34,7.39-2.28,9.06-2.23,1.43-4.73,1.38-7.23,1.31-1.47-.04-1.44-1.07-1.45-2.09,0-1.75,0-3.49,0-5.24Z"/>
  <path class="cls-25" d="M1040.35,342.29c-.13,4.21-3.29,7.19-7.5,7.08-4.32-.11-7.24-3.41-7.02-7.92.21-4.3,3.27-7.03,7.67-6.82,4.21.2,6.99,3.31,6.85,7.66Z"/>
  <path class="cls-15" d="M1059.94,564.69c-1.54-.54-3.83.67-4.03-1.01-.22-1.96,2.03-2.51,3.78-2.59,1.64-.07,3.69.32,3.6,2.26-.11,2.37-2.49.34-3.35,1.33Z"/>
  <path class="cls-15" d="M1040.17,564.66c-1.16-.66-3.4.77-3.38-1.14.02-1.94,2.23-2.44,4.01-2.44,1.5,0,3.47.34,3.25,2.19-.29,2.49-2.65.66-3.88,1.39Z"/>
  <path class="cls-6" d="M1100.87,588.04c1.25.12,2.7-.36,2.57,1.47-.18,2.57-2.42,2.57-4.13,2.9-1.45.28-2.94-.43-2.69-2.19.38-2.68,2.86-1.65,4.25-2.18Z"/>
  <path class="cls-7" d="M1087.97,566.01c1.17.17,2.68-.44,2.6,1.42-.11,2.59-2.3,2.63-4.06,2.93-1.45.25-2.99-.18-2.79-2.05.29-2.78,2.88-1.61,4.26-2.3Z"/>
  <path class="cls-13" d="M1079.88,587.77c-.24,2.9-1.83,4.58-4.72,4.74-2.69.15-5.02-2.34-4.78-5.05.25-2.91,1.95-4.48,4.89-4.48,2.71,0,4.64,2.07,4.6,4.78Z"/>
</svg>